# xmcd
#
# Track frame offsets:
#	150
#	23631
#	53948
#	77385
#	111379
#	138725
#	162027
#	189837
#	212727
#	234152
#
# Disc length: 3308 seconds
#
# Revision: 1
# Processed by: cddbd v1.5.2PL0 Copyright (c) Steve Scherf et al.
# Submitted via: audiograbber 1.83.01
#
DISCID=780cea0a
DTITLE=Various Artist - Bluegrass Hymns
DYEAR=2007
DGENRE=Bluegrass
TTITLE0=Jesus Loves Me
TTITLE1=Amazing Grace
TTITLE2=Swing Low, Sweet Chariot
TTITLE3=What A Friend I Have In Jesus
TTITLE4=Down By The Riverside
TTITLE5=Angel's Rest
TTITLE6=Five more Miles To Heaven
TTITLE7=To The Holy Land
TTITLE8=Evening Prayer Blues
TTITLE9=Will The Circle Be Broken
EXTD=
EXTT0=
EXTT1=
EXTT2=
EXTT3=
EXTT4=
EXTT5=
EXTT6=
EXTT7=
EXTT8=
EXTT9=
PLAYORDER=
